<svg width="97" height="50" viewBox="0 0 97 50" fill="none" xmlns="http://www.w3.org/2000/svg">
<rect width="96.9388" height="50" rx="10" fill="#097CFB"/>
<path fill-rule="evenodd" clip-rule="evenodd" d="M51.3243 19.6667C51.3243 19.2985 51.6147 19 51.973 19H54.7297C55.9836 19 57 20.0447 57 21.3333V25.8333C57 27.1219 55.9836 28.1666 54.7297 28.1666H42.109L44.8333 29.7532C45.145 29.9347 45.2545 30.3416 45.0779 30.6619C44.9012 30.9822 44.5054 31.0948 44.1937 30.9132L39.3289 28.0799C39.1256 27.9616 39 27.74 39 27.4999C39 27.2598 39.1256 27.0383 39.3289 26.9199L44.1937 24.0866C44.5054 23.9051 44.9012 24.0176 45.0779 24.3379C45.2545 24.6583 45.145 25.0651 44.8333 25.2466L42.109 26.8333H54.7297C55.2671 26.8333 55.7027 26.3855 55.7027 25.8333V21.3333C55.7027 20.781 55.2671 20.3333 54.7297 20.3333H51.973C51.6147 20.3333 51.3243 20.0348 51.3243 19.6667Z" fill="white"/>
</svg>
